<?xml version="1.0" encoding="UTF-8"?><svg id="b" xmlns="http://www.w3.org/2000/svg" viewBox="0 0 66.5 71.3"><defs><style>.d{fill:#32420e;}</style></defs><g id="c"><path class="d" d="M33.2,50.4c-3.7,0-7.4-.5-10.9-1.6-.5-.2-.9-.7-.7-1.3,1-4.5,2.4-8.8,4.2-12.7.2-.5.7-.7,1.2-.6,4,.9,8.1.7,12.1-.5,4.3-1.3,8.1-3.7,11-7,2.8-3.2,4.7-7.1,5.5-11.3,0-.3.3-.6.6-.8.3-.1.6-.2.9,0,1,.5,1.9,1.1,2.7,1.8,4.1,3.5,5.8,8.9,4.6,15,0,0,0,0,0,.1,0,.1,0,.2,0,.2,0,0,0,0,0,0-2.3,5.4-6.5,10-12,13.3-5.6,3.4-12.2,5.2-19.1,5.2ZM23.9,47.1c3,.8,6.1,1.2,9.3,1.2,12.9,0,24.7-6.9,29.2-17.2,0,0,0,0,0,0,1-5.3-.5-10-3.9-12.9h0c-.3-.3-.7-.6-1.1-.8-1,4-2.9,7.7-5.7,10.9-3.2,3.6-7.3,6.2-12,7.7-4,1.2-8.2,1.4-12.3.7-1.4,3.3-2.6,6.9-3.5,10.6ZM63.4,31.3h0,0Z"/><path class="d" d="M6.5,38.4c-.3,0-.6-.1-.8-.4C2,33.3,0,27.8,0,22.1S3,8.4,8.3,3.3c.2-.2.5-.3.8-.3.3,0,.6.1.8.4.3.3.3.7.2,1-1.6,4.6-1.7,9.5-.3,14.1.6,2,1.5,3.9,2.6,5.6.2.3.2.7,0,1-1.8,3.8-3.4,8.1-4.8,12.6-.1.4-.4.7-.8.7,0,0-.1,0-.2,0ZM7,8c-3.1,4.2-4.8,9.1-4.8,14.1s1.4,9,4,13c1.2-3.6,2.6-7.1,4.1-10.3-1.1-1.8-1.9-3.6-2.5-5.6-1.1-3.6-1.4-7.4-.8-11.1Z"/><path class="d" d="M21.1,71.3H1.1c-.3,0-.6-.1-.8-.3-.2-.2-.3-.5-.3-.8,0-2.6.3-5.2.5-7.9.8-8.9,2.5-17.4,5-25.4,1.4-4.6,3.1-8.9,4.9-12.8,1.3-2.8,2.8-5.5,4.3-7.9,2.5-4,5.6-7.3,9.1-10,1.2-.9,2.5-1.7,3.6-2.4C34.1.4,41.5-.8,48.3.6c6.9,1.4,12.4,5.3,15.5,11,1.7,3.1,2.6,6.5,2.7,10,0,3.5-.6,6.9-2.1,10.2-.2.5-.8.7-1.3.6-.5-.2-.8-.7-.7-1.2h0c1-5.4-.4-10.1-3.9-13.1-.7-.6-1.5-1.1-2.3-1.5,0,0,0,0,0,0,0,0,0,0,0,0-6.1-3-14.5-.5-19.9,5.9,0,0,0,0,0,0-3.3,3.7-6.1,8.1-8.4,13.3-1.7,3.9-3.1,8-4.1,12.3-.5,2.1-.9,4.3-1.2,6.5-.7,5.1-.8,10.6-.4,15.6,0,.3,0,.6-.3.8-.2.2-.5.3-.8.3ZM2.2,69.2h17.7c-.3-4.8-.2-10.1.5-14.9.3-2.2.7-4.5,1.2-6.7,1-4.5,2.4-8.8,4.2-12.7,2.4-5.3,5.3-9.9,8.8-13.8,6-7.1,15.4-9.8,22.3-6.5.1,0,.3.1.4.2.9.5,1.8,1,2.6,1.7,2.2,1.9,3.8,4.4,4.5,7.2.3-3.9-.5-7.7-2.4-11.1C56.1,2,41.1-1.1,28.5,5.8c-1.1.6-2.2,1.3-3.4,2.2-3.3,2.5-6.2,5.7-8.6,9.4-1.5,2.3-2.9,4.9-4.2,7.6-1.8,3.8-3.4,8.1-4.8,12.6-2.4,7.8-4,16.2-4.9,24.9-.2,2.2-.4,4.4-.5,6.6Z"/></g></svg>