<?xml version="1.0" encoding="UTF-8"?><svg id="b" xmlns="http://www.w3.org/2000/svg" viewBox="0 0 123.9 133.1"><g id="c"><path d="M21.4,24.9l.3,1c-.8.2-1.6-.2-1.9-.9,0,1.1-.6,2-1.7,2.3-1.7.5-3.5-.7-4-2.6-.5-1.9.4-3.9,2.1-4.3,1.1-.3,2,.1,2.6,1l-1.1-3.8,1-.3,2.1,7.3c0,.3.4.5.7.4ZM19.2,23.1c-.4-1.4-1.6-2.2-2.8-1.9-1.2.3-1.8,1.7-1.4,3.1.4,1.4,1.6,2.2,2.8,1.9,1.2-.3,1.8-1.7,1.4-3.1Z"/><path d="M28.3,22.2c-.3,1.3-1.3,2.4-2.7,2.8-1.7.5-3.5-.7-4-2.6-.5-1.9.4-3.8,2.1-4.3,1.7-.5,3.5.7,4,2.6v.5c.1,0-4.9,1.4-4.9,1.4.5,1.1,1.6,1.7,2.6,1.5.8-.2,1.5-.8,1.8-1.5l1.1-.3ZM22.5,21.7l4.1-1.1c-.5-1.1-1.6-1.7-2.6-1.5-1,.3-1.6,1.4-1.5,2.6Z"/><path d="M29,15.9l.3,1,1.9-.5.3,1-1.9.5,1.5,5.4-1,.3-1.5-5.4-.8.2-.3-1,.8-.2-.3-1c-.2-.8.2-1.7,1.1-1.9l1.4-.4.3,1-1.4.4c-.3,0-.5.4-.4.7Z"/><path d="M31.8,15.1l-.3-1,1.1-.3.3,1-1.1.3ZM33.9,22.4l-1.8-6.3,1-.3,1.8,6.3-1,.3Z"/><path d="M40.8,16.3l1.1,3.9-1,.3-.2-.8c-.1.7-.6,1.4-1.7,1.6-1.6.4-3.2-.2-3.5-1.5-.4-1.3.6-2.7,2.2-3.1,1-.3,1.8,0,2.3.5l-.2-.6c-.3-1-1.3-1.6-2.3-1.3-1,.3-1.5.9-1.6,1.4h-1c0-1.1,1-2,2.3-2.4,1.5-.4,3.1.5,3.6,2ZM40.4,18.4c-.2-.7-1.3-1.1-2.3-.8-1.1.3-1.8,1.1-1.6,1.9.2.7,1.2,1.1,2.3.8,1-.3,1.7-1.1,1.6-1.8h0Z"/><path d="M49.5,18.1l-1,.3-.9-3.2c-.4-1.4-1.6-2.2-2.8-1.9s-1.8,1.7-1.4,3.1h0s.9,3.2.9,3.2l-1,.3-1.8-6.3,1-.3.3,1.2c.1-1,.7-1.8,1.7-2.1,1.7-.5,3.5.7,4,2.6l.9,3.2Z"/><path d="M50.5,12l1.1,3.9c0,.3.4.5.7.4l1.4-.4.3,1-1.4.4c-.8.2-1.7-.3-1.9-1.1l-1.1-3.9-.8.2-.3-1,.8-.2-.7-2.5,1-.3.7,2.5,1.9-.5.3,1-1.9.5Z"/><path d="M56.2,15.1l.3,1c-.8.2-1.7-.3-1.9-1.1l-2.1-7.3,1-.3,2.1,7.3c0,.3.4.5.7.4Z"/><path d="M60.4,8.2l1-.3-.3,8.8c0,.7-.5,1.3-1.1,1.5l-2.1.6-.3-1,2.1-.6c.2,0,.4-.3.4-.5v-1.6c0,0-1,.3-1,.3l-3.8-5.7,1.1-.3,3.8,5.7.3-6.9h0Z"/><path d="M24.4,35.4c.5,1.9-.4,3.8-2.1,4.3s-3.5-.7-4-2.6c-.5-1.9.4-3.8,2.1-4.3,1.7-.5,3.5.7,4,2.6ZM23.4,35.6c-.4-1.4-1.6-2.2-2.8-1.9-1.1.3-1.8,1.7-1.4,3.1s1.6,2.2,2.8,1.9c1.1-.3,1.8-1.7,1.4-3.1Z"/><path d="M25.6,30.5l.3,1,1.9-.5.3,1-1.9.5,1.5,5.4-1,.3-1.5-5.4-.8.2-.3-1,.8-.2-.3-1c-.2-.8.3-1.7,1.1-1.9l1.4-.4.3,1-1.4.4c-.3,0-.5.4-.4.7Z"/><path d="M29.9,29.3l.3,1,1.9-.5.3,1-1.9.5,1.5,5.4-1,.3-1.5-5.4-.8.2-.3-1,.8-.2-.3-1c-.2-.8.3-1.7,1.1-1.9l1.4-.4.3,1-1.4.4c-.3,0-.5.4-.4.7Z"/><path d="M33.6,33.3l-.3-1,3.9-1.1.3,1-3.9,1.1Z"/><path d="M45.5,32.9l-1.2.3-3.7-2.9-1,1.4.7,2.6-1,.3-2.5-8.8,1-.3,1.4,5,2.5-3.4,1.6-.4-2.1,2.9,4.4,3.2Z"/><path d="M44.3,25.4l-.3-1,1.1-.3.3,1-1.1.3ZM46.4,32.6l-1.8-6.3,1-.3,1.8,6.3-1,.3Z"/><path d="M50,30.6l.3,1c-.8.2-1.7-.3-1.9-1.1l-2.1-7.3,1-.3,2.1,7.3c0,.3.4.5.7.4Z"/><path d="M51.3,25.5l1.1,3.9c0,.3.4.5.7.4l1.4-.4.3,1-1.4.4c-.8.2-1.7-.3-1.9-1.1l-1.1-3.9-.8.2-.3-1,.8-.2-.7-2.5,1-.3.7,2.5,1.9-.5.3,1-1.9.5Z"/><path d="M61.1,26.8c-.3,1.3-1.3,2.4-2.7,2.8-1.7.5-3.5-.7-4-2.6-.5-1.9.4-3.8,2.1-4.3,1.7-.5,3.5.7,4,2.6v.5c.1,0-4.9,1.4-4.9,1.4.5,1.1,1.6,1.7,2.6,1.5.8-.2,1.5-.8,1.8-1.5l1.1-.3ZM55.3,26.2l4.1-1.1c-.5-1.1-1.6-1.7-2.6-1.5-1,.3-1.6,1.4-1.5,2.6Z"/><path d="M64.2,20.5l.3,1c-.1,0-.2,0-.4,0-.9.3-1.5,1.2-1.5,2.3l1.1,3.9-1,.3-1.8-6.3,1-.3.5,1.7c-.1-1.3.2-2.2,1.4-2.6.1,0,.2,0,.4,0Z"/><path d="M33.7,48.8l.3,1c-.8.2-1.6-.2-1.9-.9,0,1.1-.6,2-1.7,2.3-1.7.5-3.5-.7-4-2.6-.5-1.9.4-3.9,2.1-4.3,1.1-.3,2,.1,2.6,1l-1.1-3.8,1-.3,2.1,7.3c0,.3.4.5.7.4ZM31.5,47.1c-.4-1.4-1.6-2.2-2.8-1.9-1.2.3-1.8,1.7-1.4,3.1s1.6,2.2,2.8,1.9c1.2-.3,1.8-1.7,1.4-3.1Z"/><path d="M40.6,46.2c-.3,1.3-1.3,2.4-2.7,2.8-1.7.5-3.5-.7-4-2.6-.5-1.9.4-3.8,2.1-4.3,1.7-.5,3.5.7,4,2.6v.5c.1,0-4.9,1.4-4.9,1.4.5,1.1,1.6,1.7,2.6,1.5.8-.2,1.5-.8,1.8-1.5l1.1-.3ZM34.8,45.6l4.1-1.1c-.5-1.1-1.6-1.7-2.6-1.5-1,.3-1.6,1.4-1.5,2.6Z"/><path d="M46.9,44.4c.3,1.1-.6,2.3-2.2,2.7-1.5.4-3-.1-3.3-1.2l1-.3c.1.5,1,.8,2,.5,1-.3,1.6-1,1.5-1.5-.2-.8-.8-.8-2.2-.6-.7.1-1.4.2-1.9,0-.6-.2-1-.6-1.2-1.2-.3-1.1.6-2.3,2.2-2.7,1.5-.4,3,.1,3.3,1.2l-1,.3c-.1-.5-1-.8-2-.5-1,.3-1.6,1-1.5,1.5,0,.3.3.4.6.5.3.1.9,0,1.4,0,1.1-.2,2.8-.5,3.3,1.3Z"/><path d="M46.6,38.4l-.3-1,1.1-.3.3,1-1.1.3ZM48.7,45.7l-1.8-6.3,1-.3,1.8,6.3-1,.3Z"/><path d="M54.3,37.3l1-.3,1.7,6.2c.5,1.6-.5,3.3-2.1,3.8h0c-1.1.3-2.3.2-3.3-.4l.5-.8c.7.4,1.6.5,2.5.3h0c1.1-.3,1.7-1.5,1.4-2.6l-.3-1.1c-.1,1-.7,1.8-1.7,2.1-1.7.5-3.5-.7-4-2.6-.5-1.9.4-3.9,2.1-4.3,1-.3,1.9.1,2.5.9l-.3-1.2ZM55.2,40.5c-.4-1.4-1.6-2.2-2.8-1.9-1.2.3-1.8,1.7-1.4,3.1s1.6,2.2,2.8,1.9c1.2-.3,1.8-1.7,1.4-3.1Z"/><path d="M64.7,41.2l-1,.3-.9-3.2c-.4-1.4-1.6-2.2-2.8-1.9s-1.8,1.7-1.4,3.1h0s.9,3.2.9,3.2l-1,.3-1.8-6.3,1-.3.3,1.2c.1-1,.7-1.8,1.7-2.1,1.7-.5,3.5.7,4,2.6l.9,3.2Z"/><path d="M85.7,73.4l-.5.9,1.8.9-.5.9-1.8-.9-2.6,4.9-.9-.5,2.6-4.9-.8-.4.5-.9.8.4.5-.9c.4-.8,1.3-1,2.1-.6l1.3.7-.5.9-1.3-.7c-.3-.1-.6,0-.7.2Z"/><path d="M91.3,81.3c-.9,1.7-2.9,2.5-4.5,1.7s-2-2.9-1.1-4.7c.9-1.7,2.9-2.5,4.5-1.7s2,2.9,1.1,4.7ZM90.4,80.8c.7-1.3.4-2.8-.7-3.3-1-.6-2.4,0-3.1,1.3-.7,1.3-.4,2.7.7,3.3,1,.6,2.4,0,3.1-1.3Z"/><path d="M97.2,80.4l-.5.9c0,0-.2-.2-.3-.2-.9-.5-1.9-.2-2.7.6l-1.9,3.6-.9-.5,3.1-5.8.9.5-.8,1.6c.8-1,1.7-1.5,2.8-.9.1,0,.2.1.3.2Z"/><path d="M65.1,84.8l-.5.9c-.7-.4-1-1.2-.7-2-.8.7-1.8,1-2.8.4-1.5-.8-2-2.9-1.1-4.7.9-1.8,3-2.5,4.5-1.7,1,.5,1.3,1.5,1.2,2.6l1.9-3.5.9.5-3.6,6.7c-.1.3,0,.6.2.7ZM64.7,82c.7-1.3.4-2.8-.7-3.3-1.1-.6-2.5,0-3.2,1.3s-.4,2.8.7,3.3c1.1.6,2.5,0,3.2-1.3Z"/><path d="M71.9,87.7c-1.1.8-2.6.9-3.9.2-1.5-.8-2-2.9-1.1-4.7.9-1.7,2.9-2.5,4.5-1.7s2,2.9,1.1,4.7l-.2.4-4.6-2.5c-.4,1.1,0,2.4.9,2.8.8.4,1.6.4,2.4.1l1,.6ZM68.1,83.3l3.7,2c.4-1.1,0-2.4-.9-2.9-.9-.5-2.1-.1-2.9.9Z"/><path d="M74,89.6l-.5.9c-.8-.4-1-1.3-.6-2.1l3.6-6.7.9.5-3.6,6.7c-.1.3,0,.6.2.7Z"/><path d="M74.6,91l3.1-5.8.9.5-3.1,5.8-.9-.5ZM78.1,84.3l.5-.9,1,.6-.5.9-1-.6Z"/><path d="M82.9,93.2c-1.1,1-2.5,1.2-3.7.6-1.5-.8-2-2.9-1.1-4.7.9-1.8,2.9-2.5,4.5-1.7,1.1.6,1.7,1.9,1.5,3.3h-1c.1-1.2-.2-2.1-1-2.5-1-.6-2.4,0-3.1,1.3-.7,1.3-.4,2.8.7,3.3.8.4,1.7.2,2.5-.5l.7.7Z"/><path d="M83,95.5l3.1-5.8.9.5-3.1,5.8-.9-.5ZM86.5,88.8l.5-.9,1,.6-.5.9-1-.6Z"/><path d="M92.1,96.7c-.9,1.8-2.9,2.5-4.5,1.7s-2-2.9-1.1-4.7,2.9-2.5,4.5-1.7,2,2.9,1.1,4.7ZM91.2,96.2c.7-1.3.4-2.7-.7-3.3s-2.4,0-3.1,1.3c-.7,1.3-.4,2.7.7,3.3s2.4,0,3.1-1.3Z"/><path d="M100.3,97.3l-3.1,5.8-.9-.5.6-1.1c-.8.6-1.7.8-2.7.3-1.5-.8-2-2.9-1.1-4.7l1.6-2.9.9.5-1.6,2.9c-.7,1.3-.4,2.8.7,3.3,1.1.6,2.5,0,3.2-1.3h0s1.6-2.9,1.6-2.9l.9.5Z"/><path d="M104.2,104.9c-.5,1-2.1,1.2-3.4.5-1.4-.7-2.1-2.1-1.5-3.1l.9.5c-.2.4.2,1.3,1.1,1.8.9.5,1.9.4,2.1,0,.4-.7,0-1.2-1.2-1.9-.6-.4-1.1-.8-1.4-1.3-.3-.6-.3-1.2,0-1.7.5-1,2.1-1.2,3.4-.5,1.4.7,2.1,2.1,1.5,3.1l-.9-.5c.2-.4-.2-1.3-1.1-1.8-.9-.5-1.9-.4-2.1,0-.1.3,0,.6,0,.8.1.3.6.6,1.1.9.9.6,2.4,1.6,1.5,3.2Z"/><path d="M64.2,96.7c-.9,1.8-3,2.5-4.5,1.7-1-.5-1.3-1.4-1.2-2.4l-.6,1.1-.9-.5,4.3-8.1.9.5-1.8,3.4c.8-.6,1.7-.8,2.7-.3,1.5.8,2,2.9,1.1,4.7ZM63.3,96.2c.7-1.3.4-2.8-.7-3.3-1.1-.6-2.5,0-3.2,1.3-.7,1.3-.4,2.8.7,3.3,1.1.6,2.5,0,3.2-1.3Z"/><path d="M70.1,95.8l-.5.9c0,0-.2-.2-.3-.2-.9-.5-1.9-.2-2.7.6l-1.9,3.6-.9-.5,3.1-5.8.9.5-.8,1.6c.8-1,1.7-1.5,2.8-.9.1,0,.2.1.3.2Z"/><path d="M74.5,101.4l-1.9,3.5-.9-.5.4-.7c-.6.4-1.4.5-2.3,0-1.4-.8-2.1-2.4-1.5-3.5.6-1.2,2.3-1.5,3.8-.7.9.5,1.3,1.2,1.3,2l.3-.6c.5-.9.1-2.1-.8-2.6-.9-.5-1.8-.4-2.1,0l-.7-.7c.8-.7,2.1-.7,3.3,0,1.4.8,1.9,2.5,1.2,3.9ZM72.7,102.6c.3-.7-.2-1.6-1.1-2.1-1-.5-2.1-.4-2.4.3-.4.7.1,1.7,1.1,2.2,1,.5,2,.4,2.4-.2h0Z"/><path d="M79.5,108.7l-.9-.5,1.6-2.9c.7-1.3.4-2.8-.7-3.3-1.1-.6-2.5,0-3.2,1.3h0s-1.6,2.9-1.6,2.9l-.9-.5,3.1-5.8.9.5-.6,1.1c.8-.6,1.7-.8,2.7-.3,1.5.8,2,2.9,1.1,4.7l-1.6,2.9Z"/><path d="M87.2,111.6l-.5.9c-.7-.4-1-1.2-.7-2-.8.7-1.8,1-2.8.4-1.5-.8-2-2.9-1.1-4.7.9-1.8,3-2.5,4.5-1.7,1,.5,1.3,1.5,1.2,2.6l1.9-3.5.9.5-3.6,6.7c-.1.3,0,.6.2.7ZM86.8,108.8c.7-1.3.4-2.8-.7-3.3-1.1-.6-2.5,0-3.2,1.3-.7,1.3-.4,2.8.7,3.3,1.1.6,2.5,0,3.2-1.3Z"/><path d="M93.4,114.1c-.5,1-2.1,1.2-3.4.5-1.4-.7-2.1-2.1-1.5-3.1l.9.5c-.2.4.2,1.3,1.1,1.8s1.9.4,2.1,0c.4-.7,0-1.2-1.2-1.9-.6-.4-1.1-.8-1.4-1.3-.3-.6-.3-1.2,0-1.7.5-1,2.1-1.2,3.4-.5,1.4.7,2.1,2.1,1.5,3.1l-.9-.5c.2-.4-.2-1.3-1.1-1.8s-1.9-.4-2.1,0c-.1.3,0,.6,0,.8.1.3.6.6,1.1.9.9.6,2.4,1.6,1.5,3.2Z"/><path d="M32.8,59.3c-5.2,0-10.2-.7-14.7-2.2-9.2-3-15.4-8.7-17.4-16-2.1-7.3.3-15.4,6.6-22.7,6.3-7.3,15.7-13,26.6-16,10.9-3,21.9-3.1,31,0,9.2,3,15.4,8.7,17.4,16h0c4.2,15.1-10.7,32.4-33.2,38.7-5.5,1.5-11,2.3-16.3,2.3ZM50.2,1c-5.2,0-10.6.8-16,2.3-10.7,3-19.9,8.5-26.1,15.7C2,26-.3,33.8,1.7,40.8c2,7,7.9,12.5,16.8,15.4,8.9,2.9,19.7,2.9,30.4-.1,22-6.1,36.5-23,32.5-37.5h0c-2-7-7.9-12.5-16.8-15.3-4.4-1.4-9.3-2.2-14.4-2.2Z"/><path d="M73.9,133.1l-.3-1.9c-.7-3.7-2.9-6.9-6.3-8.7-3.3-1.8-7.2-1.9-10.7-.4l-1.7.8.7-1.8c1.3-3.6.9-7.4-1.1-10.6-2-3.2-5.3-5.3-9.1-5.7l-1.9-.2,1.5-1.2c2.9-2.4,4.5-6,4.4-9.8-.1-3.8-2-7.2-5-9.5l-1.5-1.1,1.9-.3c3.7-.7,6.9-2.9,8.7-6.3,1.8-3.3,1.9-7.2.4-10.7l-.8-1.7,1.8.7c3.5,1.3,7.4.9,10.6-1.1,3.2-2,5.3-5.3,5.7-9.1l.2-1.9,1.2,1.5c2.4,2.9,6,4.5,9.8,4.4,3.8-.1,7.2-2,9.5-5l1.1-1.5.3,1.9c.7,3.7,2.9,6.9,6.3,8.7,3.3,1.8,7.2,1.9,10.7.4l1.7-.8-.7,1.8c-1.3,3.6-.9,7.4,1.1,10.6,2,3.2,5.3,5.3,9.1,5.7l1.9.2-1.5,1.2c-2.9,2.4-4.5,6-4.4,9.8.1,3.8,2,7.2,5,9.5l1.5,1.1-1.9.3c-3.7.7-6.9,2.9-8.7,6.3-1.8,3.3-1.9,7.2-.4,10.7l.8,1.7-1.8-.7c-3.6-1.3-7.4-.9-10.6,1.1-3.2,2-5.3,5.3-5.7,9.1l-.2,1.9-1.2-1.5c-2.4-2.9-6-4.5-9.8-4.4-3.8.1-7.2,2-9.5,5l-1.1,1.5ZM61.6,120.2c2.1,0,4.3.5,6.2,1.6,3.5,1.9,5.9,5.1,6.7,8.9,2.4-3.1,6-4.9,10-5.1,4-.1,7.7,1.5,10.3,4.4.5-3.9,2.7-7.3,6.1-9.4,3.3-2.1,7.4-2.6,11.1-1.3-1.5-3.6-1.3-7.7.6-11.2,1.9-3.5,5.1-5.9,8.9-6.7-3.1-2.4-4.9-6-5.1-10-.1-3.9,1.5-7.7,4.4-10.3-3.9-.5-7.3-2.7-9.4-6.1-2.1-3.3-2.6-7.4-1.3-11.1-3.6,1.5-7.7,1.3-11.2-.6s-5.9-5.1-6.7-8.9c-2.4,3.1-6,4.9-10,5.1-3.9.1-7.7-1.5-10.3-4.4-.5,3.9-2.7,7.3-6.1,9.4-3.3,2.1-7.4,2.6-11.1,1.3,1.5,3.6,1.3,7.7-.6,11.2-1.9,3.5-5.1,5.9-8.9,6.7,3.1,2.4,4.9,6,5.1,10,.1,3.9-1.5,7.7-4.4,10.3,3.9.5,7.3,2.7,9.4,6.1,2.1,3.3,2.6,7.4,1.3,11.1,1.6-.6,3.3-1,4.9-1Z"/></g></svg>