<?xml version="1.0" encoding="UTF-8"?><svg id="b" xmlns="http://www.w3.org/2000/svg" viewBox="0 0 81.2 81.2"><g id="c"><path d="M31.1,81.2l-.3-1.9c-.7-3.7-2.9-6.9-6.3-8.7-3.3-1.8-7.2-1.9-10.7-.4l-1.7.8.7-1.8c1.3-3.6.9-7.4-1.1-10.6-2-3.2-5.3-5.3-9.1-5.7l-1.9-.2,1.5-1.2c2.9-2.4,4.5-6,4.4-9.8-.1-3.8-2-7.2-5-9.5l-1.5-1.1,1.9-.3c3.7-.7,6.9-2.9,8.7-6.3,1.8-3.3,1.9-7.2.4-10.7l-.8-1.7,1.8.7c3.5,1.3,7.4.9,10.6-1.1,3.2-2,5.3-5.3,5.7-9.1l.2-1.9,1.2,1.5c2.4,2.9,6,4.5,9.8,4.4,3.8-.1,7.2-2,9.5-5l1.1-1.5.3,1.9c.7,3.7,2.9,6.9,6.3,8.7,3.3,1.8,7.2,1.9,10.7.4l1.7-.8-.7,1.8c-1.3,3.6-.9,7.4,1.1,10.6,2,3.2,5.3,5.3,9.1,5.7l1.9.2-1.5,1.2c-2.9,2.4-4.5,6-4.4,9.8.1,3.8,2,7.2,5,9.5l1.5,1.1-1.9.3c-3.7.7-6.9,2.9-8.7,6.3-1.8,3.3-1.9,7.2-.4,10.7l.8,1.7-1.8-.7c-3.6-1.3-7.4-.9-10.6,1.1-3.2,2-5.3,5.3-5.7,9.1l-.2,1.9-1.2-1.5c-2.4-2.9-6-4.5-9.8-4.4-3.8.1-7.2,2-9.5,5l-1.1,1.5ZM18.8,68.2c2.1,0,4.3.5,6.2,1.6,3.5,1.9,5.9,5.1,6.7,8.9,2.4-3.1,6-4.9,10-5.1,4-.1,7.7,1.5,10.3,4.4.5-3.9,2.7-7.3,6.1-9.4,3.3-2.1,7.4-2.6,11.1-1.3-1.5-3.6-1.3-7.7.6-11.2,1.9-3.5,5.1-5.9,8.9-6.7-3.1-2.4-4.9-6-5.1-10-.1-3.9,1.5-7.7,4.4-10.3-3.9-.5-7.3-2.7-9.4-6.1-2.1-3.3-2.6-7.4-1.3-11.1-3.6,1.5-7.7,1.3-11.2-.6s-5.9-5.1-6.7-8.9c-2.4,3.1-6,4.9-10,5.1-3.9.1-7.7-1.5-10.3-4.4-.5,3.9-2.7,7.3-6.1,9.4-3.3,2.1-7.4,2.6-11.1,1.3,1.5,3.6,1.3,7.7-.6,11.2-1.9,3.5-5.1,5.9-8.9,6.7,3.1,2.4,4.9,6,5.1,10,.1,3.9-1.5,7.7-4.4,10.3,3.9.5,7.3,2.7,9.4,6.1,2.1,3.3,2.6,7.4,1.3,11.1,1.6-.6,3.3-1,4.9-1Z"/></g></svg>