<?xml version="1.0" encoding="UTF-8"?><svg id="b" xmlns="http://www.w3.org/2000/svg" viewBox="0 0 3214.5 3214.5"><defs><style>.d{fill:#e4f91c;font-family:PPNeueMontreal-Medium, 'PP Neue Montreal';font-size:247px;font-weight:500;}</style></defs><g id="c"><text class="d" transform="translate(473.3 1575) rotate(-84.4)"><tspan x="0" y="0">P</tspan></text><text class="d" transform="translate(492.7 1395.4) rotate(-75.2)"><tspan x="0" y="0">A</tspan></text><text class="d" transform="translate(546.2 1204) rotate(-64.8)"><tspan x="0" y="0">C</tspan></text><text class="d" transform="translate(642.1 1010.4) rotate(-54.2)"><tspan x="0" y="0">K</tspan></text><text class="d" transform="translate(763.8 848.1) rotate(-43.8)"><tspan x="0" y="0">A</tspan></text><text class="d" transform="translate(914.3 708.9) rotate(-33.5)"><tspan x="0" y="0">B</tspan></text><text class="d" transform="translate(1086.2 598.2) rotate(-22.5)"><tspan x="0" y="0">O</tspan></text><text class="d" transform="translate(1303.8 516.6) rotate(-14.3)"><tspan x="0" y="0"> </tspan></text><text class="d" transform="translate(1396.7 494.8) rotate(-9.4)"><tspan x="0" y="0">:</tspan></text><text class="d" transform="translate(1486.6 481.3) rotate(-4.4)"><tspan x="0" y="0">)</tspan></text><text class="d" transform="translate(1597.6 475.1) rotate(.9)"><tspan x="0" y="0"> </tspan></text><text class="d" transform="translate(1690.8 473.8) rotate(9.5)"><tspan x="0" y="0">M</tspan></text><text class="d" transform="translate(1934.8 521) rotate(20.8)"><tspan x="0" y="0">A</tspan></text><text class="d" transform="translate(2123.3 596.6) rotate(31.1)"><tspan x="0" y="0">K</tspan></text><text class="d" transform="translate(2293.3 703.7) rotate(41.1)"><tspan x="0" y="0">E</tspan></text><text class="d" transform="translate(2436.1 836.2) rotate(48.4)"><tspan x="0" y="0"> </tspan></text><text class="d" transform="translate(2494.1 900) rotate(55.4)"><tspan x="0" y="0">Y</tspan></text><text class="d" transform="translate(2598.1 1052.4) rotate(65.5)"><tspan x="0" y="0">O</tspan></text><text class="d" transform="translate(2689.2 1264.2) rotate(76.7)"><tspan x="0" y="0">U</tspan></text><text class="d" transform="translate(2733.7 1470) rotate(87.2)"><tspan x="0" y="0">R</tspan></text><text class="d" transform="translate(2737.4 1673.7) rotate(94.7)"><tspan x="0" y="0"> </tspan></text><text class="d" transform="translate(2729.8 1767.4) rotate(101.9)"><tspan x="0" y="0">D</tspan></text><text class="d" transform="translate(2681 1973.8) rotate(112.9)"><tspan x="0" y="0">R</tspan></text><text class="d" transform="translate(2598.8 2158.6) rotate(122.9)"><tspan x="0" y="0">E</tspan></text><text class="d" transform="translate(2491.1 2318.9) rotate(133)"><tspan x="0" y="0">A</tspan></text><text class="d" transform="translate(2351.7 2465.9) rotate(144.4)"><tspan x="0" y="0">M</tspan></text><text class="d" transform="translate(2146 2605.4) rotate(155.5)"><tspan x="0" y="0">S</tspan></text><text class="d" transform="translate(1963.4 2681.8) rotate(162.9)"><tspan x="0" y="0"> </tspan></text><text class="d" transform="translate(1874.3 2710.6) rotate(170.8)"><tspan x="0" y="0">C</tspan></text><text class="d" transform="translate(1662.8 2741.8) rotate(-177.9)"><tspan x="0" y="0">O</tspan></text><text class="d" transform="translate(1432.8 2730.2) rotate(-165.9)"><tspan x="0" y="0">M</tspan></text><text class="d" transform="translate(1193.4 2663.4) rotate(-154.8)"><tspan x="0" y="0">E</tspan></text><text class="d" transform="translate(1019.8 2575.1) rotate(-147.4)"><tspan x="0" y="0"> </tspan></text><text class="d" transform="translate(945.8 2528.8) rotate(-140.5)"><tspan x="0" y="0">T</tspan></text><text class="d" transform="translate(801.6 2406.2) rotate(-130.6)"><tspan x="0" y="0">R</tspan></text><text class="d" transform="translate(672.5 2250.7) rotate(-120.2)"><tspan x="0" y="0">U</tspan></text><text class="d" transform="translate(570.1 2066.5) rotate(-110.1)"><tspan x="0" y="0">E</tspan></text><text class="d" transform="translate(508.8 1881.6) rotate(-102.7)"><tspan x="0" y="0">!</tspan></text></g></svg>